<svg xmlns="http://www.w3.org/2000/svg" viewBox="0 0 646.2 183.4" width="646.2" height="183.4"><title>Innocondo — assinatura com o conceito</title><rect x="0.00" y="0.00" width="120.00" height="120.00" fill="#182868"/><rect x="52.00" y="29.00" width="16.00" height="62.00" fill="#FFFFFF"/><g fill="#10152B"><path d="M84 0V730H248V0Z" transform="translate(160.00 91.39) scale(0.086000 -0.086000)"/><path d="M73 0V548H200V313H191Q191 397 212.5 453.0Q234 509 278.0 537.0Q322 565 385 565H392Q488 565 538.5 502.5Q589 440 589 313V0H429V322Q429 366 403.0 394.0Q377 422 333 422Q288 422 260.5 393.5Q233 365 233 319V0Z" transform="translate(188.55 91.39) scale(0.086000 -0.086000)"/><path d="M73 0V548H200V313H191Q191 397 212.5 453.0Q234 509 278.0 537.0Q322 565 385 565H392Q488 565 538.5 502.5Q589 440 589 313V0H429V322Q429 366 403.0 394.0Q377 422 333 422Q288 422 260.5 393.5Q233 365 233 319V0Z" transform="translate(244.62 91.39) scale(0.086000 -0.086000)"/><path d="M340 -19Q268 -19 212.0 3.5Q156 26 117.5 65.0Q79 104 59.0 154.5Q39 205 39 261V284Q39 341 59.5 392.5Q80 444 119.5 483.0Q159 522 215.0 544.5Q271 567 340 567Q411 567 466.5 544.5Q522 522 561.0 483.0Q600 444 621.0 392.5Q642 341 642 284V261Q642 205 622.0 154.5Q602 104 563.5 65.0Q525 26 469.0 3.5Q413 -19 340 -19ZM340 116Q387 116 418.0 136.0Q449 156 465.5 192.0Q482 228 482 272Q482 319 465.0 354.5Q448 390 416.5 411.0Q385 432 340 432Q296 432 264.0 411.0Q232 390 215.5 354.5Q199 319 199 272Q199 228 215.0 192.0Q231 156 263.0 136.0Q295 116 340 116Z" transform="translate(300.70 91.39) scale(0.086000 -0.086000)"/><path d="M321 -18Q252 -18 201.5 6.0Q151 30 118.0 70.5Q85 111 68.5 160.0Q52 209 52 258V276Q52 327 68.5 376.0Q85 425 118.5 464.5Q152 504 202.0 528.0Q252 552 319 552Q386 552 439.5 527.0Q493 502 525.5 456.5Q558 411 562 349H470Q463 399 424.0 432.5Q385 466 319 466Q262 466 224.0 440.0Q186 414 167.0 369.0Q148 324 148 267Q148 212 167.0 166.5Q186 121 224.5 94.5Q263 68 321 68Q366 68 399.0 84.0Q432 100 452.0 127.0Q472 154 476 188H568Q565 125 531.5 79.0Q498 33 443.5 7.5Q389 -18 321 -18Z" transform="translate(359.26 91.39) scale(0.086000 -0.086000)"/><path d="M338 -18Q268 -18 215.0 6.0Q162 30 125.5 69.5Q89 109 70.5 158.0Q52 207 52 258V276Q52 327 71.0 376.5Q90 426 127.0 465.5Q164 505 217.0 528.5Q270 552 338 552Q406 552 459.0 528.5Q512 505 549.0 465.5Q586 426 605.0 376.5Q624 327 624 276V258Q624 207 605.5 158.0Q587 109 550.5 69.5Q514 30 461.0 6.0Q408 -18 338 -18ZM338 68Q398 68 440.5 94.5Q483 121 505.5 166.0Q528 211 528 267Q528 324 505.0 369.0Q482 414 439.5 440.0Q397 466 338 466Q280 466 237.0 440.0Q194 414 171.0 369.0Q148 324 148 267Q148 211 170.5 166.0Q193 121 235.5 94.5Q278 68 338 68Z" transform="translate(411.38 91.39) scale(0.086000 -0.086000)"/><path d="M92 0V534H168V305H156Q156 384 177.5 438.5Q199 493 243.0 521.5Q287 550 354 550H358Q459 550 507.5 487.0Q556 424 556 305V0H460V325Q460 387 425.0 424.5Q390 462 329 462Q266 462 227.0 423.0Q188 384 188 319V0Z" transform="translate(469.51 91.39) scale(0.086000 -0.086000)"/><path d="M315 -18Q258 -18 210.0 3.0Q162 24 126.5 62.0Q91 100 71.5 150.0Q52 200 52 258V276Q52 333 71.0 383.0Q90 433 124.5 471.0Q159 509 206.5 530.5Q254 552 312 552Q373 552 423.0 526.5Q473 501 505.0 447.0Q537 393 541 307L501 371V730H597V0H521V237H549Q545 146 511.0 89.5Q477 33 425.5 7.5Q374 -18 315 -18ZM328 66Q377 66 417.0 88.0Q457 110 481.0 151.5Q505 193 505 249V295Q505 350 480.5 388.5Q456 427 415.5 447.5Q375 468 327 468Q274 468 233.5 443.0Q193 418 170.5 373.0Q148 328 148 267Q148 206 171.0 160.5Q194 115 235.0 90.5Q276 66 328 66Z" transform="translate(524.55 91.39) scale(0.086000 -0.086000)"/><path d="M338 -18Q268 -18 215.0 6.0Q162 30 125.5 69.5Q89 109 70.5 158.0Q52 207 52 258V276Q52 327 71.0 376.5Q90 426 127.0 465.5Q164 505 217.0 528.5Q270 552 338 552Q406 552 459.0 528.5Q512 505 549.0 465.5Q586 426 605.0 376.5Q624 327 624 276V258Q624 207 605.5 158.0Q587 109 550.5 69.5Q514 30 461.0 6.0Q408 -18 338 -18ZM338 68Q398 68 440.5 94.5Q483 121 505.5 166.0Q528 211 528 267Q528 324 505.0 369.0Q482 414 439.5 440.0Q397 466 338 466Q280 466 237.0 440.0Q194 414 171.0 369.0Q148 324 148 267Q148 211 170.5 166.0Q193 121 235.5 94.5Q278 68 338 68Z" transform="translate(583.81 91.39) scale(0.086000 -0.086000)"/></g><rect x="0" y="137.0" width="646.2" height="1.5" fill="#565E78" opacity=".35"/><g fill="#565E78"><path d="M433 -19Q334 -19 261.5 16.0Q189 51 141.5 107.5Q94 164 70.5 229.5Q47 295 47 356V378Q47 445 71.0 511.5Q95 578 143.5 632.0Q192 686 264.0 718.5Q336 751 433 751Q529 751 601.0 718.5Q673 686 721.5 632.0Q770 578 794.0 511.5Q818 445 818 378V356Q818 295 794.5 229.5Q771 164 723.5 107.5Q676 51 603.5 16.0Q531 -19 433 -19ZM433 113Q489 113 533.5 133.0Q578 153 609.5 188.5Q641 224 657.5 269.5Q674 315 674 366Q674 421 657.5 467.0Q641 513 609.5 547.0Q578 581 533.0 600.0Q488 619 433 619Q377 619 332.0 600.0Q287 581 255.5 547.0Q224 513 207.5 467.0Q191 421 191 366Q191 315 207.5 269.5Q224 224 255.5 188.5Q287 153 332.0 133.0Q377 113 433 113Z" transform="translate(0.00 175.90) scale(0.030000 -0.030000)"/><path d="M79 0V543H189V313H186Q186 430 236.0 490.0Q286 550 383 550H403V429H365Q295 429 256.5 391.5Q218 354 218 283V0Z" transform="translate(25.95 175.90) scale(0.030000 -0.030000)"/><path d="M291 -214Q252 -214 211.5 -211.0Q171 -208 136 -203V-87Q172 -91 213.0 -94.5Q254 -98 290 -98Q357 -98 398.5 -82.0Q440 -66 459.5 -31.5Q479 3 479 56V163L509 231Q506 156 478.0 103.5Q450 51 402.0 23.5Q354 -4 291 -4Q235 -4 189.5 17.0Q144 38 111.5 75.0Q79 112 61.0 162.0Q43 212 43 269V290Q43 347 61.5 396.5Q80 446 114.0 483.0Q148 520 195.0 540.0Q242 560 299 560Q366 560 415.5 531.0Q465 502 493.0 447.0Q521 392 524 312L500 308V543H610V64Q610 -35 576.0 -96.0Q542 -157 471.5 -185.5Q401 -214 291 -214ZM331 115Q371 115 404.0 133.0Q437 151 457.0 185.0Q477 219 477 267V302Q477 348 456.5 380.0Q436 412 403.0 428.5Q370 445 331 445Q287 445 253.5 424.5Q220 404 201.0 367.0Q182 330 182 279Q182 229 201.0 192.0Q220 155 253.5 135.0Q287 115 331 115Z" transform="translate(38.46 175.90) scale(0.030000 -0.030000)"/><path d="M408 0V161H385V340Q385 387 362.0 410.0Q339 433 291 433Q266 433 231.0 432.0Q196 431 160.5 429.5Q125 428 97 426V544Q120 546 149.0 548.0Q178 550 208.5 550.5Q239 551 266 551Q350 551 405.5 529.0Q461 507 489.5 460.0Q518 413 518 337V0ZM233 -14Q174 -14 129.5 7.0Q85 28 60.5 67.0Q36 106 36 161Q36 221 65.5 259.0Q95 297 148.5 316.0Q202 335 274 335H400V252H272Q224 252 198.5 228.5Q173 205 173 168Q173 131 198.5 108.0Q224 85 272 85Q301 85 325.5 95.5Q350 106 366.5 131.5Q383 157 385 201L419 162Q414 105 391.5 66.0Q369 27 329.5 6.5Q290 -14 233 -14Z" transform="translate(58.95 175.90) scale(0.030000 -0.030000)"/><path d="M79 0V543H189V310H179Q179 393 201.0 448.5Q223 504 266.5 532.0Q310 560 375 560H381Q478 560 528.0 497.5Q578 435 578 311V0H439V323Q439 373 410.5 404.0Q382 435 332 435Q281 435 249.5 403.5Q218 372 218 319V0Z" transform="translate(76.59 175.90) scale(0.030000 -0.030000)"/><path d="M105 0V543H244V0ZM29 439V543H244V439ZM156 608Q115 608 95.5 629.5Q76 651 76 684Q76 717 95.5 738.0Q115 759 156 759Q197 759 216.0 738.0Q235 717 235 684Q235 651 216.0 629.5Q197 608 156 608Z" transform="translate(96.03 175.90) scale(0.030000 -0.030000)"/><path d="M44 0V110L312 432V416L291 444L308 436H43V543H457V433L189 111V126L211 98L194 107H468V0Z" transform="translate(105.78 175.90) scale(0.030000 -0.030000)"/><path d="M408 0V161H385V340Q385 387 362.0 410.0Q339 433 291 433Q266 433 231.0 432.0Q196 431 160.5 429.5Q125 428 97 426V544Q120 546 149.0 548.0Q178 550 208.5 550.5Q239 551 266 551Q350 551 405.5 529.0Q461 507 489.5 460.0Q518 413 518 337V0ZM233 -14Q174 -14 129.5 7.0Q85 28 60.5 67.0Q36 106 36 161Q36 221 65.5 259.0Q95 297 148.5 316.0Q202 335 274 335H400V252H272Q224 252 198.5 228.5Q173 205 173 168Q173 131 198.5 108.0Q224 85 272 85Q301 85 325.5 95.5Q350 106 366.5 131.5Q383 157 385 201L419 162Q414 105 391.5 66.0Q369 27 329.5 6.5Q290 -14 233 -14Z" transform="translate(120.69 175.90) scale(0.030000 -0.030000)"/><path d="M79 0V543H189V313H186Q186 430 236.0 490.0Q286 550 383 550H403V429H365Q295 429 256.5 391.5Q218 354 218 283V0Z" transform="translate(138.33 175.90) scale(0.030000 -0.030000)"/><path d="M57 0V160H213V0Z" transform="translate(150.84 175.90) scale(0.030000 -0.030000)"/><path d="M419 -19Q320 -19 249.0 16.0Q178 51 133.5 107.0Q89 163 68.0 229.0Q47 295 47 356V378Q47 446 68.5 512.0Q90 578 135.0 632.0Q180 686 249.5 718.5Q319 751 414 751Q513 751 586.5 715.5Q660 680 704.0 615.5Q748 551 757 465H614Q606 515 578.5 549.5Q551 584 509.0 601.5Q467 619 414 619Q360 619 318.0 600.5Q276 582 248.0 548.0Q220 514 205.5 468.0Q191 422 191 366Q191 312 205.5 266.0Q220 220 249.0 185.5Q278 151 320.5 132.0Q363 113 419 113Q501 113 557.5 153.5Q614 194 626 267H769Q759 189 716.0 124.0Q673 59 598.0 20.0Q523 -19 419 -19Z" transform="translate(165.39 175.90) scale(0.030000 -0.030000)"/><path d="M340 -19Q268 -19 213.0 4.0Q158 27 120.0 66.5Q82 106 62.5 156.0Q43 206 43 260V281Q43 337 63.5 387.5Q84 438 122.5 477.5Q161 517 216.0 539.5Q271 562 340 562Q409 562 464.0 539.5Q519 517 557.5 477.5Q596 438 616.0 387.5Q636 337 636 281V260Q636 206 616.5 156.0Q597 106 559.0 66.5Q521 27 466.0 4.0Q411 -19 340 -19ZM340 100Q391 100 426.0 122.5Q461 145 479.0 183.5Q497 222 497 271Q497 321 478.5 359.5Q460 398 424.5 420.5Q389 443 340 443Q291 443 255.5 420.5Q220 398 201.0 359.5Q182 321 182 271Q182 222 200.5 183.5Q219 145 254.0 122.5Q289 100 340 100Z" transform="translate(189.36 175.90) scale(0.030000 -0.030000)"/><path d="M79 0V543H189V310H179Q179 393 201.0 448.5Q223 504 266.5 532.0Q310 560 375 560H381Q478 560 528.0 497.5Q578 435 578 311V0H439V323Q439 373 410.5 404.0Q382 435 332 435Q281 435 249.5 403.5Q218 372 218 319V0Z" transform="translate(209.73 175.90) scale(0.030000 -0.030000)"/><path d="M322 -19Q252 -19 199.5 5.0Q147 29 112.5 69.5Q78 110 60.5 160.0Q43 210 43 262V281Q43 335 60.5 385.5Q78 436 112.5 475.5Q147 515 198.0 538.5Q249 562 316 562Q404 562 463.5 523.5Q523 485 553.0 422.5Q583 360 583 288V238H102V323H496L453 281Q453 333 438.0 370.0Q423 407 392.5 427.0Q362 447 316 447Q270 447 238.0 426.0Q206 405 189.5 365.5Q173 326 173 271Q173 220 189.0 180.5Q205 141 238.0 118.5Q271 96 322 96Q373 96 405.0 116.5Q437 137 446 167H574Q562 111 528.0 69.0Q494 27 441.5 4.0Q389 -19 322 -19Z" transform="translate(229.17 175.90) scale(0.030000 -0.030000)"/><path d="M320 -19Q249 -19 197.5 5.0Q146 29 111.5 69.0Q77 109 60.0 159.0Q43 209 43 261V280Q43 335 60.5 385.5Q78 436 113.0 475.5Q148 515 199.5 538.5Q251 562 319 562Q390 562 446.0 534.5Q502 507 535.5 458.0Q569 409 573 344H438Q433 386 402.5 414.0Q372 442 319 442Q273 442 242.5 420.0Q212 398 197.0 359.5Q182 321 182 271Q182 223 196.5 184.0Q211 145 241.5 123.0Q272 101 320 101Q356 101 382.0 114.0Q408 127 423.5 150.0Q439 173 443 202H578Q574 136 539.5 86.5Q505 37 448.5 9.0Q392 -19 320 -19Z" transform="translate(247.77 175.90) scale(0.030000 -0.030000)"/><path d="M315 -7Q240 -7 191.5 12.5Q143 32 119.0 78.5Q95 125 95 204L96 696H226L225 195Q225 155 246.5 133.5Q268 112 308 112H393V-7ZM9 441V543H393V441Z" transform="translate(266.07 175.90) scale(0.030000 -0.030000)"/><path d="M408 0V161H385V340Q385 387 362.0 410.0Q339 433 291 433Q266 433 231.0 432.0Q196 431 160.5 429.5Q125 428 97 426V544Q120 546 149.0 548.0Q178 550 208.5 550.5Q239 551 266 551Q350 551 405.5 529.0Q461 507 489.5 460.0Q518 413 518 337V0ZM233 -14Q174 -14 129.5 7.0Q85 28 60.5 67.0Q36 106 36 161Q36 221 65.5 259.0Q95 297 148.5 316.0Q202 335 274 335H400V252H272Q224 252 198.5 228.5Q173 205 173 168Q173 131 198.5 108.0Q224 85 272 85Q301 85 325.5 95.5Q350 106 366.5 131.5Q383 157 385 201L419 162Q414 105 391.5 66.0Q369 27 329.5 6.5Q290 -14 233 -14Z" transform="translate(279.00 175.90) scale(0.030000 -0.030000)"/><path d="M79 0V543H189V313H186Q186 430 236.0 490.0Q286 550 383 550H403V429H365Q295 429 256.5 391.5Q218 354 218 283V0Z" transform="translate(296.64 175.90) scale(0.030000 -0.030000)"/><path d="M57 0V160H213V0Z" transform="translate(309.15 175.90) scale(0.030000 -0.030000)"/><path d="M234 0V625H376V0ZM23 605V730H587V605Z" transform="translate(323.70 175.90) scale(0.030000 -0.030000)"/><path d="M79 0V543H189V313H186Q186 430 236.0 490.0Q286 550 383 550H403V429H365Q295 429 256.5 391.5Q218 354 218 283V0Z" transform="translate(342.00 175.90) scale(0.030000 -0.030000)"/><path d="M408 0V161H385V340Q385 387 362.0 410.0Q339 433 291 433Q266 433 231.0 432.0Q196 431 160.5 429.5Q125 428 97 426V544Q120 546 149.0 548.0Q178 550 208.5 550.5Q239 551 266 551Q350 551 405.5 529.0Q461 507 489.5 460.0Q518 413 518 337V0ZM233 -14Q174 -14 129.5 7.0Q85 28 60.5 67.0Q36 106 36 161Q36 221 65.5 259.0Q95 297 148.5 316.0Q202 335 274 335H400V252H272Q224 252 198.5 228.5Q173 205 173 168Q173 131 198.5 108.0Q224 85 272 85Q301 85 325.5 95.5Q350 106 366.5 131.5Q383 157 385 201L419 162Q414 105 391.5 66.0Q369 27 329.5 6.5Q290 -14 233 -14Z" transform="translate(354.51 175.90) scale(0.030000 -0.030000)"/><path d="M79 0V543H189V310H179Q179 393 201.0 448.5Q223 504 266.5 532.0Q310 560 375 560H381Q478 560 528.0 497.5Q578 435 578 311V0H439V323Q439 373 410.5 404.0Q382 435 332 435Q281 435 249.5 403.5Q218 372 218 319V0Z" transform="translate(372.15 175.90) scale(0.030000 -0.030000)"/><path d="M276 -17Q164 -17 100.5 30.5Q37 78 34 162H159Q162 134 190.0 111.0Q218 88 278 88Q328 88 357.5 106.0Q387 124 387 155Q387 182 364.5 198.0Q342 214 288 219L240 224Q149 234 100.0 276.0Q51 318 51 388Q51 444 79.0 482.0Q107 520 156.5 539.5Q206 559 270 559Q370 559 432.0 515.0Q494 471 497 386H372Q370 414 344.0 434.0Q318 454 269 454Q225 454 201.0 437.0Q177 420 177 393Q177 367 196.5 353.0Q216 339 260 334L308 329Q404 319 458.5 276.0Q513 233 513 160Q513 106 483.5 66.5Q454 27 401.0 5.0Q348 -17 276 -17Z" transform="translate(391.59 175.90) scale(0.030000 -0.030000)"/><path d="M92 0V556Q92 649 143.5 693.5Q195 738 296 738H364V631H286Q255 631 238.5 614.5Q222 598 222 568V0ZM24 432V534H373V432Z" transform="translate(408.06 175.90) scale(0.030000 -0.030000)"/><path d="M340 -19Q268 -19 213.0 4.0Q158 27 120.0 66.5Q82 106 62.5 156.0Q43 206 43 260V281Q43 337 63.5 387.5Q84 438 122.5 477.5Q161 517 216.0 539.5Q271 562 340 562Q409 562 464.0 539.5Q519 517 557.5 477.5Q596 438 616.0 387.5Q636 337 636 281V260Q636 206 616.5 156.0Q597 106 559.0 66.5Q521 27 466.0 4.0Q411 -19 340 -19ZM340 100Q391 100 426.0 122.5Q461 145 479.0 183.5Q497 222 497 271Q497 321 478.5 359.5Q460 398 424.5 420.5Q389 443 340 443Q291 443 255.5 420.5Q220 398 201.0 359.5Q182 321 182 271Q182 222 200.5 183.5Q219 145 254.0 122.5Q289 100 340 100Z" transform="translate(419.49 175.90) scale(0.030000 -0.030000)"/><path d="M79 0V543H189V313H186Q186 430 236.0 490.0Q286 550 383 550H403V429H365Q295 429 256.5 391.5Q218 354 218 283V0Z" transform="translate(439.86 175.90) scale(0.030000 -0.030000)"/><path d="M79 0V543H189V310H179Q179 392 200.0 447.5Q221 503 262.5 531.5Q304 560 366 560H372Q435 560 476.5 531.5Q518 503 538.5 447.5Q559 392 559 310H524Q524 392 545.5 447.5Q567 503 608.5 531.5Q650 560 712 560H718Q781 560 823.0 531.5Q865 503 886.5 447.5Q908 392 908 310V0H769V323Q769 374 743.0 404.5Q717 435 669 435Q621 435 592.0 403.5Q563 372 563 319V0H424V323Q424 374 398.0 404.5Q372 435 324 435Q276 435 247.0 403.5Q218 372 218 319V0Z" transform="translate(452.37 175.90) scale(0.030000 -0.030000)"/><path d="M408 0V161H385V340Q385 387 362.0 410.0Q339 433 291 433Q266 433 231.0 432.0Q196 431 160.5 429.5Q125 428 97 426V544Q120 546 149.0 548.0Q178 550 208.5 550.5Q239 551 266 551Q350 551 405.5 529.0Q461 507 489.5 460.0Q518 413 518 337V0ZM233 -14Q174 -14 129.5 7.0Q85 28 60.5 67.0Q36 106 36 161Q36 221 65.5 259.0Q95 297 148.5 316.0Q202 335 274 335H400V252H272Q224 252 198.5 228.5Q173 205 173 168Q173 131 198.5 108.0Q224 85 272 85Q301 85 325.5 95.5Q350 106 366.5 131.5Q383 157 385 201L419 162Q414 105 391.5 66.0Q369 27 329.5 6.5Q290 -14 233 -14Z" transform="translate(481.71 175.90) scale(0.030000 -0.030000)"/><path d="M79 0V543H189V313H186Q186 430 236.0 490.0Q286 550 383 550H403V429H365Q295 429 256.5 391.5Q218 354 218 283V0Z" transform="translate(499.35 175.90) scale(0.030000 -0.030000)"/><path d="M57 0V160H213V0Z" transform="translate(511.86 175.90) scale(0.030000 -0.030000)"/></g></svg>